<svg width="151" height="130" viewBox="0 0 151 130" fill="none" xmlns="http://www.w3.org/2000/svg">
<path d="M124.075 76.0167H87.33C86.3335 74.231 85.2982 72.4659 84.2298 70.7188C80.7564 65.0381 76.9098 59.5647 72.7163 54.3414C71.5856 52.9371 70.4315 51.548 69.2539 50.1783C69.7391 49.7636 70.22 49.3476 70.7052 48.9329C74.6665 45.5203 78.6251 42.1091 82.5823 38.7048C83.102 38.2584 83.6217 37.8078 84.1414 37.3627C87.4945 34.474 90.8491 31.588 94.1995 28.6992C95.1117 29.758 96.0115 30.8264 96.8961 31.9045C98.3764 33.6999 99.8194 35.5203 101.224 37.3627C107.12 45.078 112.397 53.2135 117.025 61.6918C119.575 66.365 121.929 71.1459 124.075 76.0167V76.0167Z" fill="#EFB025"/>
<path d="M75.4103 50.1811C74.2327 51.5495 73.0786 52.9386 71.9521 54.3429C67.7558 59.5661 63.912 65.0395 60.4386 70.7217C49.4115 88.7467 42.0874 108.882 38.9982 129.958C34.3555 123.8 30.0707 117.138 26.2158 110.014C19.4348 114.437 12.8073 119.496 6.42578 125.188C9.70293 102.832 16.9234 81.3451 27.6478 61.6933C33.3755 51.1915 40.1067 41.2135 47.7723 31.9087C48.6569 30.8279 49.5567 29.7636 50.4689 28.7007C54.3418 32.0359 58.2119 35.3711 62.0861 38.7063C66.0433 42.1147 70.0019 45.5218 73.9604 48.9344C74.4442 49.3463 74.9252 49.7651 75.4103 50.1811V50.1811Z" fill="#FF4440"/>
<path d="M144.397 125.188C138.016 119.496 131.388 114.437 124.607 110.014C120.753 117.138 116.468 123.8 111.825 129.958C108.736 108.882 101.413 88.7467 90.3847 70.7217C86.9113 65.0395 83.0647 59.5661 78.8711 54.3429C77.7405 52.9386 76.5864 51.5495 75.4102 50.1811C75.8939 49.7651 76.3749 49.3491 76.8601 48.9344C80.8214 45.5218 84.7799 42.1106 88.7385 38.7063C92.6114 35.3669 96.4856 32.0359 100.354 28.7007C101.267 29.7594 102.166 30.8279 103.051 31.906C110.718 41.2108 117.449 51.1887 123.18 61.6933C133.901 81.3451 141.12 102.832 144.397 125.188V125.188Z" fill="#FF4440"/>
<path d="M60.9893 50.1811H89.8367V76.0168H60.9893V50.1811Z" fill="#FF4440"/>
<path d="M123.18 61.6933L90.3847 70.7217C86.9113 65.0396 83.0647 59.5662 78.8711 54.3429L76.8601 48.9344L75.4102 45.0339L88.7385 38.7063L103.051 31.906C110.718 41.2108 117.449 51.1888 123.18 61.6933V61.6933Z" fill="#EA2F2F"/>
<path d="M75.41 45.0339L73.9601 48.9344L71.9518 54.3428C67.7555 59.5661 63.9117 65.0395 60.4383 70.7217L27.6475 61.6933C33.3752 51.1915 40.1064 41.2135 47.772 31.9087L62.0858 38.7062L75.41 45.0339Z" fill="#EA2F2F"/>
<path d="M127.749 1.25336L75.4102 26.1091L85.4641 53.1486L141.329 37.7719C148.635 35.7608 152.649 27.9197 150.008 20.8167L145.397 8.41857C142.757 1.31555 134.595 -1.99753 127.749 1.25336V1.25336Z" fill="#FF4440"/>
<path d="M23.0719 1.25336L75.4109 26.1091L65.3569 53.1486L9.49341 37.7719C2.18722 35.7608 -1.82663 27.9197 0.814712 20.8167L5.42428 8.41857C8.06562 1.31555 16.226 -1.99753 23.0719 1.25336V1.25336Z" fill="#FF4440"/>
<path d="M87.9093 36.9758C86.9583 36.9758 86.0253 36.5058 85.4766 35.6447C84.6183 34.3026 85.0094 32.5196 86.3515 31.6613C86.7482 31.4083 96.1747 25.4097 106.997 21.0323C122.599 14.7213 133.018 15.0599 137.961 22.0386C138.883 23.3392 138.574 25.1402 137.274 26.0607C135.973 26.9812 134.174 26.6744 133.253 25.3738C126.552 15.9141 98.6916 30.6233 89.4601 36.5224C88.9791 36.8292 88.4414 36.9758 87.9093 36.9758Z" fill="#EA2F2F"/>
<path d="M62.6289 36.9758C62.0967 36.9758 61.5591 36.8292 61.0781 36.5224C51.8465 30.6233 23.9859 15.9141 17.2851 25.3738C16.3632 26.6744 14.5636 26.9812 13.263 26.0607C11.9637 25.1388 11.6555 23.3392 12.5774 22.0386C17.5201 15.0599 27.9376 14.7213 43.541 21.0323C54.3634 25.4083 63.7899 31.4083 64.1866 31.6613C65.5287 32.5196 65.9198 34.3026 65.0629 35.6447C64.5114 36.5058 63.5798 36.9758 62.6289 36.9758Z" fill="#EA2F2F"/>
<path d="M83.6192 16.8154H67.2044C62.7124 16.8154 59.0703 20.4575 59.0703 24.9509V48.7977C59.0703 53.2911 62.7124 56.9332 67.2044 56.9332H83.6192C88.1113 56.9332 91.7533 53.2911 91.7533 48.7977V24.9509C91.7533 20.4575 88.1113 16.8154 83.6192 16.8154Z" fill="#EA2F2F"/>
</svg>
